<mxfile host="Electron" modified="2023-08-31T12:43:44.994Z" agent="Mozilla/5.0 (Windows NT 10.0; Win64; x64) AppleWebKit/537.36 (KHTML, like Gecko) draw.io/21.5.0 Chrome/112.0.5615.204 Electron/24.5.1 Safari/537.36" etag="NuE_f93GCaCLF4fQSdxF" version="21.5.0" type="device">
  <diagram name="Страница 1" id="wzanrXC7VISc0xLaYJ3G">
    <mxGraphModel dx="1658" dy="828" grid="1" gridSize="10" guides="1" tooltips="1" connect="1" arrows="1" fold="1" page="1" pageScale="1" pageWidth="827" pageHeight="1169" math="0" shadow="0">
      <root>
        <mxCell id="0" />
        <mxCell id="1" parent="0" />
        <mxCell id="hgLdPR6rasikEASFNiwg-5" style="edgeStyle=orthogonalEdgeStyle;rounded=0;orthogonalLoop=1;jettySize=auto;html=1;entryX=0.5;entryY=0;entryDx=0;entryDy=0;" parent="1" source="hgLdPR6rasikEASFNiwg-2" target="hgLdPR6rasikEASFNiwg-3" edge="1">
          <mxGeometry relative="1" as="geometry" />
        </mxCell>
        <mxCell id="hgLdPR6rasikEASFNiwg-2" value="Старт" style="rounded=1;whiteSpace=wrap;html=1;" parent="1" vertex="1">
          <mxGeometry x="274" y="110" width="120" height="60" as="geometry" />
        </mxCell>
        <mxCell id="hgLdPR6rasikEASFNiwg-9" value="" style="edgeStyle=orthogonalEdgeStyle;rounded=0;orthogonalLoop=1;jettySize=auto;html=1;" parent="1" source="hgLdPR6rasikEASFNiwg-3" target="hgLdPR6rasikEASFNiwg-7" edge="1">
          <mxGeometry relative="1" as="geometry" />
        </mxCell>
        <mxCell id="hgLdPR6rasikEASFNiwg-3" value="Введите длинну&lt;br&gt;массива N" style="shape=parallelogram;perimeter=parallelogramPerimeter;whiteSpace=wrap;html=1;fixedSize=1;" parent="1" vertex="1">
          <mxGeometry x="259" y="200" width="150" height="60" as="geometry" />
        </mxCell>
        <mxCell id="hgLdPR6rasikEASFNiwg-11" style="edgeStyle=orthogonalEdgeStyle;rounded=0;orthogonalLoop=1;jettySize=auto;html=1;entryX=0.5;entryY=0;entryDx=0;entryDy=0;" parent="1" source="hgLdPR6rasikEASFNiwg-7" target="hgLdPR6rasikEASFNiwg-10" edge="1">
          <mxGeometry relative="1" as="geometry" />
        </mxCell>
        <mxCell id="hgLdPR6rasikEASFNiwg-7" value="Введите массив&lt;br&gt;string[] array" style="shape=parallelogram;perimeter=parallelogramPerimeter;whiteSpace=wrap;html=1;fixedSize=1;" parent="1" vertex="1">
          <mxGeometry x="259" y="290" width="150" height="60" as="geometry" />
        </mxCell>
        <mxCell id="hgLdPR6rasikEASFNiwg-15" style="edgeStyle=orthogonalEdgeStyle;rounded=0;orthogonalLoop=1;jettySize=auto;html=1;entryX=0.5;entryY=0;entryDx=0;entryDy=0;" parent="1" source="hgLdPR6rasikEASFNiwg-10" target="hgLdPR6rasikEASFNiwg-29" edge="1">
          <mxGeometry relative="1" as="geometry">
            <mxPoint x="370" y="470" as="targetPoint" />
          </mxGeometry>
        </mxCell>
        <mxCell id="hgLdPR6rasikEASFNiwg-10" value="maxLengthString&lt;span style=&quot;background-color: initial;&quot;&gt;&amp;nbsp;= 3&lt;br&gt;string[] newArray&lt;br&gt;count = 0&lt;br&gt;&lt;/span&gt;" style="rounded=0;whiteSpace=wrap;html=1;" parent="1" vertex="1">
          <mxGeometry x="269" y="380" width="130" height="60" as="geometry" />
        </mxCell>
        <mxCell id="hgLdPR6rasikEASFNiwg-60" style="edgeStyle=orthogonalEdgeStyle;rounded=0;orthogonalLoop=1;jettySize=auto;html=1;exitX=1;exitY=0.5;exitDx=0;exitDy=0;" parent="1" source="hgLdPR6rasikEASFNiwg-29" edge="1">
          <mxGeometry relative="1" as="geometry">
            <mxPoint x="400" y="625" as="sourcePoint" />
            <mxPoint x="490" y="495" as="targetPoint" />
          </mxGeometry>
        </mxCell>
        <mxCell id="hgLdPR6rasikEASFNiwg-29" value="i = 0,&amp;nbsp;array.Length, 1" style="shape=hexagon;perimeter=hexagonPerimeter2;whiteSpace=wrap;html=1;fixedSize=1;" parent="1" vertex="1">
          <mxGeometry x="249" y="470" width="170" height="50" as="geometry" />
        </mxCell>
        <mxCell id="hgLdPR6rasikEASFNiwg-39" style="edgeStyle=orthogonalEdgeStyle;rounded=0;orthogonalLoop=1;jettySize=auto;html=1;entryX=0.5;entryY=0;entryDx=0;entryDy=0;" parent="1" source="hgLdPR6rasikEASFNiwg-31" target="hgLdPR6rasikEASFNiwg-34" edge="1">
          <mxGeometry relative="1" as="geometry" />
        </mxCell>
        <mxCell id="hgLdPR6rasikEASFNiwg-33" value="Да" style="text;html=1;align=center;verticalAlign=middle;resizable=0;points=[];autosize=1;strokeColor=none;fillColor=none;" parent="1" vertex="1">
          <mxGeometry x="290" y="640" width="40" height="30" as="geometry" />
        </mxCell>
        <mxCell id="hgLdPR6rasikEASFNiwg-47" style="edgeStyle=orthogonalEdgeStyle;rounded=0;orthogonalLoop=1;jettySize=auto;html=1;entryX=0;entryY=0.5;entryDx=0;entryDy=0;" parent="1" source="hgLdPR6rasikEASFNiwg-34" target="hgLdPR6rasikEASFNiwg-29" edge="1">
          <mxGeometry relative="1" as="geometry">
            <mxPoint x="40" y="850" as="targetPoint" />
            <Array as="points">
              <mxPoint x="335" y="760" />
              <mxPoint x="160" y="760" />
              <mxPoint x="160" y="495" />
            </Array>
          </mxGeometry>
        </mxCell>
        <mxCell id="hgLdPR6rasikEASFNiwg-34" value="newArray[count] = array[i]&lt;br&gt;count++" style="rounded=0;whiteSpace=wrap;html=1;" parent="1" vertex="1">
          <mxGeometry x="258" y="680" width="151" height="40" as="geometry" />
        </mxCell>
        <mxCell id="hgLdPR6rasikEASFNiwg-46" value="Нет" style="text;html=1;align=center;verticalAlign=middle;resizable=0;points=[];autosize=1;strokeColor=none;fillColor=none;" parent="1" vertex="1">
          <mxGeometry x="170" y="560" width="40" height="30" as="geometry" />
        </mxCell>
        <mxCell id="wJ2ImIyqIYIah_FPhKZa-2" value="" style="edgeStyle=orthogonalEdgeStyle;rounded=0;orthogonalLoop=1;jettySize=auto;html=1;" edge="1" parent="1" source="hgLdPR6rasikEASFNiwg-29" target="hgLdPR6rasikEASFNiwg-31">
          <mxGeometry relative="1" as="geometry">
            <mxPoint x="334" y="680" as="targetPoint" />
            <mxPoint x="334" y="510" as="sourcePoint" />
          </mxGeometry>
        </mxCell>
        <mxCell id="wJ2ImIyqIYIah_FPhKZa-5" style="edgeStyle=orthogonalEdgeStyle;rounded=0;orthogonalLoop=1;jettySize=auto;html=1;exitX=0;exitY=0.5;exitDx=0;exitDy=0;" edge="1" parent="1" source="hgLdPR6rasikEASFNiwg-31">
          <mxGeometry relative="1" as="geometry">
            <mxPoint x="160" y="595" as="targetPoint" />
          </mxGeometry>
        </mxCell>
        <mxCell id="hgLdPR6rasikEASFNiwg-31" value="array[i].Lenght &amp;lt; maxLengthString" style="rhombus;whiteSpace=wrap;html=1;" parent="1" vertex="1">
          <mxGeometry x="219.5" y="550" width="229" height="90" as="geometry" />
        </mxCell>
        <mxCell id="wJ2ImIyqIYIah_FPhKZa-9" style="edgeStyle=orthogonalEdgeStyle;rounded=0;orthogonalLoop=1;jettySize=auto;html=1;entryX=0.5;entryY=0;entryDx=0;entryDy=0;" edge="1" parent="1" source="wJ2ImIyqIYIah_FPhKZa-6" target="hgLdPR6rasikEASFNiwg-53">
          <mxGeometry relative="1" as="geometry">
            <Array as="points" />
          </mxGeometry>
        </mxCell>
        <mxCell id="wJ2ImIyqIYIah_FPhKZa-6" value="newArray[]" style="shape=document;whiteSpace=wrap;html=1;boundedLbl=1;" vertex="1" parent="1">
          <mxGeometry x="489" y="470" width="120" height="70" as="geometry" />
        </mxCell>
        <mxCell id="hgLdPR6rasikEASFNiwg-53" value="Финишь" style="rounded=1;whiteSpace=wrap;html=1;" parent="1" vertex="1">
          <mxGeometry x="489" y="630" width="120" height="60" as="geometry" />
        </mxCell>
        <mxCell id="wJ2ImIyqIYIah_FPhKZa-10" value="&amp;nbsp;Из имеющегося массива строк формируем новый массив строк,&lt;br&gt;&amp;nbsp;длина которых меньше, либо равна 3 символам." style="text;html=1;align=center;verticalAlign=middle;resizable=0;points=[];autosize=1;strokeColor=none;fillColor=none;" vertex="1" parent="1">
          <mxGeometry x="139" y="53" width="390" height="40" as="geometry" />
        </mxCell>
      </root>
    </mxGraphModel>
  </diagram>
</mxfile>
